<?xml version="1.0" encoding="UTF-8"?>
<svg id="Layer_1" xmlns="http://www.w3.org/2000/svg" version="1.1" viewBox="0 0 160 160">
  <!-- Generator: Adobe Illustrator 29.8.2, SVG Export Plug-In . SVG Version: 2.1.1 Build 3)  -->
  <defs>
    <style>
      .st0 {
        fill: #4584b6;
      }

      .st1 {
        fill: #ffde57;
      }
    </style>
  </defs>
  <g>
    <path class="st0" d="M18.85,114.34c0-10.2.63-15.44.63-24.57,0-5.1-1.84-10.36-8.66-10.61v-12.47c6.82-.25,8.66-5.51,8.66-10.61,0-8.97-.63-14.53-.63-24.57,0-15.56,3.66-20.5,11.79-20.5h4.88v11.24h-2.6c-5.26,0-6.43,2.08-6.43,10.09,0,7.58.29,14.95.29,23.47,0,10.92-1.8,15.11-6.35,16.84v.58c4.54,1.73,6.35,5.92,6.35,16.84,0,8.75-.29,15.72-.29,23.47s1.16,10.09,6.43,10.09h2.6v11.24h-4.88c-8.13,0-11.79-4.94-11.79-20.5Z"/>
    <path class="st0" d="M124.55,123.61h2.59c5.22,0,6.4-2.08,6.4-10.09s-.24-14.71-.24-23.47c0-10.92,1.78-15.11,6.33-16.84v-.58c-4.54-1.73-6.33-5.92-6.33-16.84,0-8.51.24-15.88.24-23.47,0-8.01-1.18-10.09-6.4-10.09h-2.59v-11.24h4.86c8.15,0,11.77,4.94,11.77,20.5,0,10.04-.66,15.6-.66,24.57,0,5.1,1.84,10.36,8.71,10.61v12.47c-6.87.25-8.71,5.51-8.71,10.61,0,9.13.66,14.37.66,24.57,0,15.56-3.62,20.5-11.77,20.5h-4.86v-11.24Z"/>
  </g>
  <g>
    <path class="st1" d="M45.5,102.29c0-7.3,1-12.6,1-19.3,0-3.9-2.7-7.7-14.5-7.8v-5.2c11.8-.1,14.5-3.9,14.5-7.8,0-6.3-1-12.4-1-19.3,0-10.3,6-13.3,18.5-13.3h6.2v4.7h-5.2c-10.2,0-12.4,2.6-12.4,9.1,0,5.7.6,11.9.6,18.1s-2.2,9.7-9.1,10.9v.4c6.9,1.2,9.1,4.4,9.1,10.9s-.6,12-.6,18.1c0,6.5,2.2,9.1,12.4,9.1h5.2v4.7h-6.2c-12.5,0-18.5-3-18.5-13.3Z"/>
    <path class="st1" d="M89.9,110.89h5.1c10.2,0,12.5-2.6,12.5-9.1,0-6.1-.6-11.3-.6-18.1s2.1-9.7,9-10.9v-.4c-6.9-1.2-9-4.4-9-10.9s.6-12.4.6-18.1c0-6.5-2.3-9.1-12.5-9.1h-5.1v-4.7h6.1c12.6,0,18.4,3,18.4,13.3,0,6.9-.9,13-.9,19.3,0,3.9,2.7,7.7,14.5,7.8v5.2c-11.8.1-14.5,3.9-14.5,7.8,0,6.7.9,12,.9,19.3,0,10.3-5.8,13.3-18.4,13.3h-6.1v-4.7Z"/>
  </g>
  <text/>
</svg>